<svg width="98.2" height="77.9" viewBox="0 0 98.2 77.9" xmlns="http://www.w3.org/2000/svg">
  <style>
    :root { --icon-color: black; }
    @media (prefers-color-scheme: dark) {
      :root { --icon-color: white; }
    }
    .icon { fill: var(--icon-color); stroke: var(--icon-color); }
  </style>

  <g class="icon" stroke-linecap="round" fill-rule="evenodd" font-size="9pt"
     stroke-width="0.25mm">
    <path d="M 86.2 64.7 L 86.2 62.6 L 86.1 55.6 L 86.1 51.4 Q 86.1 44 85 42.5 Q 83.8 40.8 81.8 40.8 Q 78.4 40.8 74.9 42.3 L 73.8 42.8 L 72.8 39.2 Q 80.9 34.9 86.1 32.6 L 86.1 15.8 Q 86.1 7.6 81.8 7.6 Q 80.1 7.6 78.85 9 Q 77.6 10.4 77.6 12.4 L 77.6 17.9 Q 77.6 19.2 76.75 20.05 Q 75.9 20.9 72.9 22 L 63.8 25.5 L 62.4 24.1 Q 65 21.4 65 17.5 L 65 9.9 Q 65 9.2 76.45 4.65 Q 87.9 0.1 89.6 0.1 Q 91.3 0.1 94.75 4.2 Q 98.2 8.3 98.2 11.6 L 98.2 31 Q 98.2 32.5 92.9 35.2 Q 98.1 41.2 98.1 47.8 L 98.1 67.8 Q 98.1 70 86.1 73.95 Q 74.1 77.9 70.7 77.9 Q 69.5 77.9 68.85 75.8 Q 68.2 73.7 67.65 70.75 Q 67.1 67.8 66.6 67 Q 65.7 65.5 62.4 65.1 L 62.4 63.2 Q 74.3 57.3 76.8 57.3 Q 77.3 57.3 77.4 58.35 Q 77.5 59.4 77.5 62.7 Q 77.5 66 78.8 68.45 Q 80.1 70.9 82.2 70.9 Q 86.2 70.9 86.2 64.7 Z M 33.1 14.6 L 33.1 42.9 Q 33.1 50.5 29.6 58.95 Q 26.1 67.4 22.5 72.2 Q 18.9 77 17.7 77 Q 15.2 77 11.25 75.75 Q 7.3 74.5 4.6 73.2 L 1.9 72 L 1.9 69 L 4.8 69 Q 9.9 69 15.45 61 Q 21 53 21 45.1 Q 10 50 8.45 50 Q 6.9 50 3.45 45.4 Q 0 40.8 0 37.5 L 0 9.3 Q 0 8.5 10.95 4.25 Q 21.9 0 24.35 0 Q 26.8 0 29.95 4.3 Q 33.1 8.6 33.1 14.6 Z M 56.1 6.8 L 56.1 60.3 Q 56.1 63 57 64.15 Q 57.9 65.3 60.1 65.3 L 60.1 68.1 Q 39.8 77 39.7 77 L 38.1 73.8 Q 38.9 73.8 40.05 73.1 Q 41.2 72.4 42 71.5 Q 44.1 69.1 44.1 64.2 L 44.1 14.8 Q 44.1 12.7 42.7 11.35 Q 41.3 10 40.1 9.65 Q 38.9 9.3 37 8.9 L 37 6.7 L 50.1 0 Q 52.3 0.9 54.2 2.95 Q 56.1 5 56.1 6.8 Z M 12.1 10.8 L 12.1 33 Q 12.1 36.2 13.95 38.3 Q 15.8 40.4 21.1 40.4 L 21.1 16.6 Q 21.1 9.2 16 9.2 Q 14.1 9.2 12.1 10.8 Z"/>
  </g>
</svg>
